PathFileType	4	(X/Y/Z)	/Users/itak/Documents/Research/Walk-IL/dataset/trc/00463_00167.trc
DataRate	CameraRate	NumFrames	NumMarkers	Units	OrigDataRate	OrigDataStartFrame	OrigNumFrames
100.000000	100.000000	4	53	mm	100.000000	434	579
Frame#	Time	RPSI			LPSI			L3			STRN			T10			C7			CLAV			RBAK			LBAK			LSHO			LUPA			LAEL			LAOL			LWTS			LWPS			LFRA			LIFD			LHPS			LHTS			RSHO			RUPA			RAEL			RAOL			RWTS			RWPS			RFRA			RIFD			RHTS			RHPS			RBHD			LFHD			RFHD			LBHD			LHIP			RHIP			RASI			LASI			LKNE			LTHI			LANK			LTIP			LTOE			LMT1			LMT5			LHEE			RKNE			RTHI			RANK			RTIP			RTOE			RMT1			RMT5			RHEE			
		X1	Y1	Z1	X2	Y2	Z2	X3	Y3	Z3	X4	Y4	Z4	X5	Y5	Z5	X6	Y6	Z6	X7	Y7	Z7	X8	Y8	Z8	X9	Y9	Z9	X10	Y10	Z10	X11	Y11	Z11	X12	Y12	Z12	X13	Y13	Z13	X14	Y14	Z14	X15	Y15	Z15	X16	Y16	Z16	X17	Y17	Z17	X18	Y18	Z18	X19	Y19	Z19	X20	Y20	Z20	X21	Y21	Z21	X22	Y22	Z22	X23	Y23	Z23	X24	Y24	Z24	X25	Y25	Z25	X26	Y26	Z26	X27	Y27	Z27	X28	Y28	Z28	X29	Y29	Z29	X30	Y30	Z30	X31	Y31	Z31	X32	Y32	Z32	X33	Y33	Z33	X34	Y34	Z34	X35	Y35	Z35	X36	Y36	Z36	X37	Y37	Z37	X38	Y38	Z38	X39	Y39	Z39	X40	Y40	Z40	X41	Y41	Z41	X42	Y42	Z42	X43	Y43	Z43	X44	Y44	Z44	X45	Y45	Z45	X46	Y46	Z46	X47	Y47	Z47	X48	Y48	Z48	X49	Y49	Z49	X50	Y50	Z50	X51	Y51	Z51	X52	Y52	Z52	X53	Y53	Z53	

435	4.34	225.6184997558594	939.4461669921875	11.45060348510742	365.9906616210938	943.0780639648438	44.30049514770508	275.1769104003906	1042.278198242188	40.43019485473633	236.7907257080078	1244.344116210938	311.2925415039062	278.9980163574219	1167.40625	26.2000904083252	252.7222137451172	1436.05322265625	89.80429840087891	246.2145233154297	1356.9814453125	274.6211547851562	172.0844421386719	1316.791137695312	14.88540554046631	355.64892578125	1387.536499023438	69.23037719726562	424.9536437988281	1413.080444335938	177.6989593505859	524.7765502929688	1297.139404296875	175.4206848144531	566.8184814453125	1084.133422851562	194.4426574707031	507.2893676757812	1067.104370117188	112.0175399780273	521.927734375	884.0089721679688	278.7538146972656	580.8236083984375	869.5074462890625	235.9738616943359	577.1470336914062	997.5146484375	219.4745483398438	536.1173095703125	714.0786743164062	284.9662170410156	584.8800048828125	792.0953369140625	246.8780822753906	535.9971923828125	797.7879638671875	299.4061584472656	86.06417846679688	1408.308349609375	134.6546325683594	17.65406227111816	1347.125244140625	100.2727508544922	-36.78666687011719	1065.71630859375	65.33657073974609	16.63848686218262	1054.53662109375	25.26444435119629	-13.48112201690674	843.2899169921875	140.6075744628906	-57.96872329711914	844.170654296875	63.66695404052734	-47.99860382080078	1009.075500488281	59.6473274230957	-8.040109634399414	690.622802734375	98.29298400878906	-18.82189750671387	743.309326171875	126.2890472412109	-50.98750686645508	755.6849975585938	57.82052612304688	155.8665924072266	1636.488159179688	181.8109588623047	321.0232849121094	1653.344360351562	305.2891235351562	190.2905731201172	1654.434814453125	314.4971618652344	331.6927490234375	1639.421875	153.4734954833984	447.9069519042969	849.1807861328125	213.2029113769531	60.27684020996094	841.2425537109375	104.0753173828125	101.1115188598633	892.01708984375	214.1369171142578	346.8351745605469	893.522705078125	280.238525390625	389.3998718261719	445.8726806640625	325.1143493652344	414.9356384277344	599.9151611328125	312.7208862304688	392.9715881347656	36.5356559753418	239.6157684326172	401.8190612792969	290.5473327636719	320.6707458496094	298.6243286132812	38.56075286865234	466.9727478027344	278.6062927246094	48.02951431274414	388.2293701171875	395.6832275390625	37.13785552978516	393.1903381347656	331.9483947753906	44.0554084777832	189.9768829345703	39.22813034057617	473.3090515136719	215.5218048095703	45.3568000793457	719.4573974609375	136.0187835693359	94.7725830078125	193.5797576904297	-110.3471832275391	43.44255065917969	358.2078552246094	130.3267211914062	126.8310699462891	44.95740509033203	37.84829330444336	167.4441375732422	91.93566131591797	2.555476665496826	65.26998138427734	88.59626007080078	-31.19384765625	145.0311279296875	241.5184326171875	-148.2323608398438	
436	4.350000000000001	226.6703643798828	940.6980590820312	15.80926322937012	367.0460510253906	944.0179443359375	48.76084136962891	276.8821411132812	1043.648803710938	45.10685729980469	236.830078125	1245.050048828125	316.5013122558594	281.1321105957031	1168.8330078125	31.53348922729492	254.6089630126953	1437.279296875	95.60701751708984	246.5742034912109	1357.80078125	280.1983032226562	174.4113311767578	1318.264282226562	19.85548782348633	357.7154846191406	1388.746704101562	75.72758483886719	426.0326538085938	1414.144653320312	184.8184204101562	525.9841918945312	1298.32861328125	183.7631225585938	568.8299560546875	1085.947021484375	204.1034393310547	510.3840637207031	1067.871337890625	121.131950378418	523.9248046875	887.2263793945312	290.847900390625	582.9656982421875	872.1074829101562	248.4733734130859	579.1676635742188	999.7102661132812	230.2760772705078	539.12255859375	717.65673828125	300.6659851074219	587.4100341796875	795.0579223632812	260.94775390625	538.4814453125	801.6177368164062	313.3098754882812	87.54293060302734	1409.576171875	139.1299133300781	19.37008666992188	1348.417114257812	104.1763534545898	-34.84849166870117	1066.619018554688	69.38202667236328	18.59520721435547	1055.114501953125	29.54484939575195	-11.50947284698486	845.4141235351562	147.4407958984375	-55.52435302734375	845.0194091796875	70.052001953125	-45.89630126953125	1009.829040527344	64.16227722167969	-6.196023464202881	692.085205078125	107.8589248657227	-17.23249053955078	745.3803100585938	134.9295196533203	-48.61259841918945	756.4397583007812	65.81321716308594	157.1129302978516	1637.775634765625	188.1636505126953	322.2273254394531	1653.925415039062	311.8275146484375	191.5229339599609	1655.139770507812	320.8405456542969	333.0405883789062	1640.55078125	159.9423675537109	448.7909240722656	849.5588989257812	217.7548522949219	60.54021835327148	843.0481567382812	108.9488754272461	102.4328002929688	893.7880859375	218.2549591064453	347.8852233886719	894.0803833007812	284.7289428710938	389.6180114746094	445.6522216796875	326.6858825683594	414.8641357421875	599.989990234375	315.5186462402344	392.9461059570312	36.59857177734375	239.6426086425781	401.9169616699219	290.3599243164062	321.6096801757812	298.6041259765625	38.51945114135742	467.0176696777344	278.5709228515625	48.01490783691406	388.2727355957031	395.6749877929688	37.13759994506836	393.1955261230469	331.9890441894531	44.19293594360352	189.9437561035156	38.87821960449219	476.5422668457031	227.4005889892578	46.41427612304688	721.2327880859375	140.4034729003906	95.02985382080078	189.8155822753906	-92.48593902587891	43.40395355224609	359.6259460449219	144.7142791748047	127.8423309326172	46.65789031982422	60.84815979003906	168.2960052490234	92.44538116455078	23.71463584899902	66.17477416992188	88.04663848876953	-9.602842330932617	144.8789825439453	236.9193420410156	-132.0809783935547	
437	4.36	227.5303802490234	942.05224609375	20.05383682250977	367.8991394042969	945.0294189453125	53.0580940246582	278.4406433105469	1045.04736328125	49.74393844604492	236.846435546875	1245.846801757812	321.5823974609375	283.1809692382812	1170.261352539062	36.75719451904297	256.4559326171875	1438.552612304688	101.2015838623047	246.8775787353516	1358.707153320312	285.6210327148438	176.681640625	1319.732543945312	24.70708274841309	359.6910095214844	1389.977661132812	82.05765533447266	427.0211181640625	1415.276000976562	191.7379608154297	527.0867309570312	1299.587158203125	191.8619537353516	570.6619873046875	1087.853759765625	213.4910888671875	513.1957397460938	1068.704711914062	130.0608978271484	525.792724609375	890.5975341796875	302.7665100097656	584.9450073242188	874.8551025390625	260.7615661621094	581.0171508789062	1002.031799316406	240.8250427246094	541.9337768554688	721.4226684570312	316.0952758789062	589.806640625	798.217529296875	274.7882690429688	540.8729858398438	805.6236572265625	326.9996948242188	88.96939086914062	1410.891357421875	143.4494934082031	21.0291633605957	1349.770385742188	107.932487487793	-32.9974250793457	1067.578979492188	73.37364196777344	20.43555450439453	1055.6875	33.76995468139648	-9.759725570678711	847.7653198242188	154.5048370361328	-53.22060775756836	845.9756469726562	76.68876647949219	-43.88508987426758	1010.622802734375	68.67655181884766	-4.802627086639404	693.7403564453125	118.0675277709961	-16.0547981262207	747.7147216796875	144.1103363037109	-46.54423522949219	757.3231811523438	74.27967834472656	158.2377624511719	1639.105102539062	194.3218688964844	323.3082580566406	1654.535522460938	318.1871643066406	192.6221771240234	1655.834228515625	326.9960021972656	334.2649841308594	1641.726928710938	166.2518768310547	449.5542907714844	849.9325561523438	222.0017852783203	60.63899230957031	845.0126953125	113.9413146972656	103.7433471679688	895.62451171875	222.3329925537109	348.9104919433594	894.6928100585938	289.0867919921875	389.8002319335938	445.4698181152344	328.0626220703125	414.756103515625	600.0814819335938	318.0164489746094	392.9156188964844	36.67509460449219	239.6676788330078	401.9740295410156	290.22509765625	322.4463195800781	298.5865478515625	38.47998809814453	467.0632934570312	278.5362243652344	48.00054550170898	388.3152160644531	395.6640625	37.14094161987305	393.2005615234375	332.0401916503906	44.31422424316406	189.9116973876953	38.64650344848633	479.6566772460938	238.8920288085938	47.46230697631836	723.0734252929688	144.7478332519531	95.03206634521484	184.5138854980469	-74.01751708984375	43.38808441162109	360.5842895507812	159.0104522705078	129.4427032470703	48.17835235595703	84.92433929443359	169.5255279541016	92.49504089355469	45.66729736328125	67.46536254882812	86.42628479003906	12.93997764587402	144.2626190185547	230.7851257324219	-115.5600433349609	
438	4.37	228.198486328125	943.4890747070312	24.1855583190918	368.5523376464844	946.1343994140625	57.21327590942383	279.8378295898438	1046.4638671875	54.35670471191406	236.8515625	1246.72265625	326.5478210449219	285.1197509765625	1171.657958984375	41.8935432434082	258.2645568847656	1439.868408203125	106.591667175293	247.1349639892578	1359.6875	290.9015197753906	178.8864440917969	1321.18115234375	29.45802688598633	361.5684814453125	1391.213745117188	88.22579193115234	427.9231567382812	1416.467529296875	198.4559478759766	528.1007690429688	1300.91943359375	199.6900329589844	572.3311157226562	1089.835571289062	222.5431823730469	515.694091796875	1069.597290039062	138.7758941650391	527.5165405273438	894.1177368164062	314.4751892089844	586.7431640625	877.73388671875	272.8001098632812	582.6995239257812	1004.459106445312	251.0687408447266	544.5204467773438	725.369384765625	331.2244567871094	592.0368041992188	801.5540771484375	288.364990234375	543.13818359375	809.7947387695312	340.4410705566406	90.34733581542969	1412.244384765625	147.6339569091797	22.63504219055176	1351.177001953125	111.5672836303711	-31.2335205078125	1068.608764648438	77.31784820556641	22.1452693939209	1056.247924804688	37.9480094909668	-8.22467041015625	850.316650390625	161.7364196777344	-51.07929611206055	847.046630859375	83.58447265625	-41.97795486450195	1011.458679199219	73.19737243652344	-3.814522743225098	695.612548828125	128.8189392089844	-15.21257209777832	750.2965087890625	153.7236022949219	-44.77398300170898	758.3549194335938	83.17547607421875	159.2468566894531	1640.457885742188	200.2729034423828	324.2634887695312	1655.176513671875	324.358154296875	193.5912322998047	1656.522705078125	332.9508972167969	335.3693237304688	1642.945190429688	172.3877716064453	450.2076721191406	850.328857421875	225.924560546875	60.61953353881836	847.1116943359375	119.0702972412109	105.0047836303711	897.4884033203125	226.359130859375	349.8755798339844	895.3564453125	293.3208312988281	389.9766845703125	445.3326721191406	329.2037963867188	414.6416931152344	600.195556640625	320.1879272460938	392.87744140625	36.7650146484375	239.6876220703125	402.03125	290.1438293457031	323.1291809082031	298.5767211914062	38.44334030151367	467.109619140625	278.5060729980469	47.98896789550781	388.3579711914062	395.6531066894531	37.14519882202148	393.2049255371094	332.0906066894531	44.41556549072266	189.8825988769531	38.51586532592773	482.5923461914062	249.9505310058594	48.46175765991211	724.9414672851562	149.0404510498047	94.75720977783203	177.8637542724609	-54.9471435546875	43.38927459716797	361.0634765625	173.167724609375	131.4237976074219	49.53797149658203	109.8785247802734	170.9790191650391	92.13935852050781	68.28137969970703	68.98439788818359	83.93405151367188	36.32310485839844	143.2605133056641	223.2012786865234	-98.65532684326172	
